ply
format ascii 1.0
element vertex 365
property float x
property float y
property float z
element edge 260
property int vertex1
property int vertex2
end_header

0 0 0
0 0 160
28.7684 -10.4708 233.91
52.7548 -24.7726 262.548
65.8703 -37.156 271.187
70.9991 -45.6119 272.668
73.0924 -55.3723 272.074
77.5568 -51.8036 276.988
81.2567 -62.5235 275.631
71.8669 -40.7315 278.347
77.3753 -47.4688 283.272
76.3895 -41.1463 287.256
83.8601 -47.8824 292.665
85.5434 -55.7312 284.146
90.6722 -64.187 285.627
91.54 -59.3067 291.305
98.6588 -68.1146 292.785
59.9469 -27.3903 281.025
64.973 -31.8374 288.439
69.5274 -39.253 293.365
68.569 -33.1462 297.678
75.0251 -40.7314 303.267
60.595 -26.2333 290.937
63.2009 -28.4131 300.342
58.1963 -22.7866 300.013
61.891 -23.9193 310.761
70.7351 -31.3169 308.742
75.7611 -35.7639 316.156
71.3831 -30.1599 318.654
77.9272 -33.9346 327.219
88.7345 -46.2253 305.504
95.2923 -52.417 309.824
100.421 -60.8728 311.305
101.289 -55.9924 316.983
108.408 -64.8004 318.463
92.3306 -47.5341 314.743
97.3566 -51.9812 322.157
92.9786 -46.3771 324.655
99.5227 -50.1518 333.221
106.724 -56.9516 326.982
113.282 -63.1433 331.302
110.32 -58.2605 336.221
118.718 -64.1025 341.301
28.7684 -10.4708 273.91
34.6314 -15.3905 292.388
39.0435 -20.8013 299.547
43.0881 -28.8625 303.867
41.9751 -23.2611 308.786
47.8677 -31.6229 313.866
34.6314 -15.3905 302.388
36.5449 -18.7047 311.627
31.6999 -12.9307 311.627
34.6314 -15.3905 322.388
43.426 -22.77 320.104
47.8381 -28.1808 327.264
43.426 -22.77 330.104
49.2891 -27.6897 338.582
21.5763 -7.85313 292.388
20.9283 -9.01012 302.3
22.3369 -13.3277 311.209
17.3322 -7.70127 311.538
19.6322 -11.3241 322.123
14.9317 -5.43468 299.459
10.7346 -5.29993 308.535
6.25003 -2.27482 303.286
1.6424 -0.597784 313.601
10.7881 -3.92656 320.104
10.1401 -5.08356 330.016
4.14351 -1.50812 327.175
3.59605 -1.30885 338.582
28.7684 -10.4708 333.91
31.6999 -12.9307 343.149
36.112 -18.3415 350.309
31.6999 -12.9307 353.149
37.563 -17.8504 361.627
25.1723 -9.16198 343.149
24.5243 -10.319 353.061
18.5277 -6.74353 350.22
17.9802 -6.54427 361.627
28.7684 -10.4708 363.91
31.6999 -12.9307 373.149
25.1723 -9.16198 373.149
28.7684 -10.4708 383.91
71.921 -26.1771 344.776
83.9142 -33.328 359.095
90.4719 -39.5197 363.414
95.6007 -47.9755 364.896
96.4685 -43.0951 370.574
103.587 -51.9031 372.053
87.5102 -34.6368 368.333
92.5363 -39.0839 375.747
88.1583 -33.4798 378.245
94.7023 -37.2545 386.811
101.904 -44.0543 380.573
108.462 -50.246 384.892
105.5 -45.3632 389.812
113.897 -51.2052 394.892
71.921 -26.1771 364.776
74.8525 -28.6369 374.015
79.2646 -34.0477 381.174
74.8525 -28.6369 384.015
80.7155 -33.5566 392.492
68.3249 -24.8682 374.015
67.6769 -26.0252 383.926
61.6803 -22.4498 381.086
61.1328 -22.2505 392.492
71.921 -26.1771 394.776
74.8525 -28.6369 404.015
68.3249 -24.8682 404.015
71.921 -26.1771 414.776
93.4972 -34.0302 400.209
99.4939 -37.6057 407.368
106.052 -43.7974 411.688
103.09 -38.9145 416.607
111.487 -44.7565 421.687
93.4972 -34.0302 410.209
96.4288 -36.4901 419.447
89.9012 -32.7214 419.447
93.4972 -34.0302 430.209
104.285 -37.9568 427.925
110.282 -41.5322 435.084
104.285 -37.9568 437.925
111.477 -40.5745 446.403
-30.6147 0 233.91
-31.4675 -5.23542 273.557
-25.8668 -12.3863 291.376
-21.4613 -18.578 297.876
-17.2898 -27.0339 301.207
-18.6609 -22.1535 306.785
-12.6503 -30.9615 310.876
-26.08 -13.6952 301.287
-24.2737 -18.1422 310.06
-29.2744 -12.5382 310.692
-26.5065 -16.3129 321.111
-17.4657 -23.1126 318.103
-13.0602 -29.3044 324.603
-17.6789 -24.4215 328.015
-11.8649 -30.2635 335.922
-39.1212 -5.23542 292.035
-39.9484 -7.69526 301.692
-38.6119 -13.106 309.995
-43.7752 -7.69526 310.931
-41.6027 -12.6149 321.007
-45.9791 -3.92656 299.194
-50.3708 -5.08356 308.103
-54.8239 -1.50812 303.184
-59.6948 -1.30885 313.513
-50.6017 -5.23542 319.751
-51.4289 -7.69526 329.408
-57.4596 -3.92656 326.91
-58.2554 -5.23542 338.229
-32.7469 -13.0885 333.027
-29.9465 -16.664 341.936
-25.541 -22.8557 348.437
-30.1597 -17.9728 351.848
-24.3457 -23.8149 359.755
-36.5737 -13.0885 342.266
-37.4009 -15.5484 351.923
-43.4315 -11.7797 349.425
-44.2274 -13.0885 360.744
-33.3865 -17.0151 362.762
-30.5861 -20.5906 371.671
-37.2134 -17.0151 372.001
-33.813 -19.6328 382.586
-58.8989 0 262.195
-66.879 -2.61771 280.346
-67.7012 -6.19315 289.649
-66.1186 -12.3849 297.34
-71.6912 -7.50201 298.724
-69.3456 -13.344 308.254
-73.9501 -2.61771 287.417
-78.41 -5.07755 296.023
-83.0257 -1.30885 291.407
-88.0922 -2.61771 301.559
-78.8491 -6.54427 307.573
-79.6713 -10.1197 316.875
-85.9201 -6.54427 314.644
-86.8291 -9.16198 325.724
-77.3765 0 269.848
-84.5359 -1.30885 276.706
-88.8555 -4.8843 284.986
-93.7747 -1.30885 280.533
-98.8547 -3.92656 290.422
-87.3765 0 269.848
-96.6153 -1.30885 273.444
-96.6153 0 266.021
-107.377 0 269.848
-105.093 0 281.329
-112.252 -1.30885 288.187
-115.093 0 281.329
-123.571 0 288.982
-101.325 0 304.621
-105.315 -1.30885 313.697
-106.138 -4.8843 322.999
-112.386 -1.30885 320.768
-113.295 -3.92656 331.848
-110.564 0 308.448
-117.724 -1.30885 315.306
-120.564 0 308.448
-129.042 0 316.102
-122.539 0 325.834
-126.529 -1.30885 334.91
-131.777 0 329.661
-136.681 0 339.976
-76.5367 0 344.776
-76.9631 -2.61771 364.599
-74.1628 -6.19315 373.508
-69.7573 -12.3849 380.009
-74.376 -7.50201 383.42
-68.562 -13.344 391.327
-80.79 -2.61771 373.838
-81.6171 -5.07755 383.495
-87.6478 -1.30885 380.997
-88.4436 -2.61771 392.316
-77.6028 -6.54427 394.334
-74.8024 -10.1197 403.244
-81.4296 -6.54427 403.573
-78.0292 -9.16198 414.158
-90.6788 0 358.918
-94.6688 -1.30885 367.994
-95.491 -4.8843 377.296
-101.74 -1.30885 375.065
-102.649 -3.92656 386.145
-99.9176 0 362.745
-107.077 -1.30885 369.603
-109.918 0 362.745
-118.395 0 370.399
-111.892 0 380.131
-115.882 -1.30885 389.207
-121.131 0 383.958
-126.034 0 394.273
-99.4977 0 400.209
-99.7109 -1.30885 410.12
-96.9105 -4.8843 419.03
-103.538 -1.30885 419.359
-100.137 -3.92656 429.944
-106.569 0 407.28
-110.559 -1.30885 416.355
-115.808 0 411.107
-120.711 0 421.422
-110.978 0 427.925
-111.191 -1.30885 437.837
-118.049 0 434.996
-118.632 0 446.403
0 0 400
14.3842 -5.23542 436.955
26.3774 -12.3863 451.274
32.9351 -18.578 455.594
38.064 -27.0339 457.075
38.9318 -22.1535 462.753
46.0506 -30.9615 464.233
29.9735 -13.6952 460.513
34.9995 -18.1422 467.926
30.6215 -12.5382 470.424
37.1656 -16.3129 478.99
44.3673 -23.1126 472.752
50.925 -29.3044 477.072
47.9633 -24.4215 481.991
56.3605 -30.2635 487.071
14.3842 -5.23542 456.955
17.3157 -7.69526 466.194
21.7278 -13.106 473.353
17.3157 -7.69526 476.194
23.1788 -12.6149 484.672
10.7881 -3.92656 466.194
10.1401 -5.08356 476.106
4.14351 -1.50812 473.265
3.59605 -1.30885 484.672
14.3842 -5.23542 486.955
17.3157 -7.69526 496.194
10.7881 -3.92656 496.194
14.3842 -5.23542 506.955
35.9605 -13.0885 492.388
41.9571 -16.664 499.547
48.5148 -22.8557 503.867
45.5531 -17.9728 508.786
53.9503 -23.8149 513.866
35.9605 -13.0885 502.388
38.892 -15.5484 511.627
32.3644 -11.7797 511.627
35.9605 -13.0885 522.388
46.7486 -17.0151 520.104
52.7452 -20.5906 527.264
46.7486 -17.0151 530.104
53.9407 -19.6328 538.582
-15.3073 0 436.955
-15.7338 -2.61771 456.779
-12.9334 -6.19315 465.688
-8.52791 -12.3849 472.188
-13.1466 -7.50201 475.599
-7.33266 -13.344 483.506
-19.5606 -2.61771 466.017
-20.3878 -5.07755 475.675
-26.4185 -1.30885 473.177
-27.2143 -2.61771 484.495
-16.3734 -6.54427 486.514
-13.5731 -10.1197 495.423
-20.2003 -6.54427 495.752
-16.7999 -9.16198 506.337
-29.4495 0 451.097
-33.4395 -1.30885 460.173
-34.2617 -4.8843 469.476
-40.5106 -1.30885 467.244
-41.4195 -3.92656 478.324
-38.6883 0 454.924
-45.8477 -1.30885 461.782
-48.6883 0 454.924
-57.1659 0 462.578
-50.6627 0 472.311
-54.6527 -1.30885 481.386
-59.9015 0 476.137
-64.8048 0 486.453
-38.2683 0 492.388
-38.4816 -1.30885 502.3
-35.6812 -4.8843 511.209
-42.3084 -1.30885 511.538
-38.908 -3.92656 522.123
-45.3394 0 499.459
-49.3294 -1.30885 508.535
-54.5782 0 503.286
-59.4815 0 513.601
-49.7488 0 520.104
-49.9621 -1.30885 530.016
-56.8199 0 527.175
-57.4025 0 538.582
0 0 520
7.1921 -2.61771 538.478
13.1887 -6.19315 545.637
19.7464 -12.3849 549.957
16.7848 -7.50201 554.876
25.1819 -13.344 559.956
7.1921 -2.61771 548.478
10.1236 -5.07755 557.716
3.59605 -1.30885 557.716
7.1921 -2.61771 568.478
17.9802 -6.54427 566.194
23.9769 -10.1197 573.353
17.9802 -6.54427 576.194
25.1723 -9.16198 584.672
-7.65367 0 538.478
-7.86689 -1.30885 548.389
-5.06652 -4.8843 557.298
-11.6937 -1.30885 557.628
-8.29332 -3.92656 568.213
-14.7247 0 545.549
-18.7148 -1.30885 554.624
-23.9635 0 549.375
-28.8669 0 559.691
-19.1342 0 566.194
-19.3474 -1.30885 576.106
-26.2052 0 573.265
-26.7878 0 584.672
0 0 580
3.59605 -1.30885 589.239
9.59266 -4.8843 596.398
3.59605 -1.30885 599.239
10.7881 -3.92656 607.716
-3.82683 0 589.239
-4.04005 -1.30885 599.15
-10.8979 0 596.31
-11.4805 0 607.716
0 0 610
3.59605 -1.30885 619.239
-3.82683 0 619.239
0 0 630

0 1
1 2
2 3
3 4
4 5
5 8
4 9
9 12
4 13
13 16
3 17
17 18
18 21
17 22
22 25
17 26
26 29
3 30
30 31
31 34
30 35
35 38
30 39
39 42
2 43
43 44
44 45
45 48
44 49
49 52
44 53
53 56
43 57
57 58
58 61
57 62
62 65
57 66
66 69
43 70
70 71
71 74
70 75
75 78
70 79
79 82
2 83
83 84
84 85
85 88
84 89
89 92
84 93
93 96
83 97
97 98
98 101
97 102
102 105
97 106
106 109
83 110
110 111
111 114
110 115
115 118
110 119
119 122
1 123
123 124
124 125
125 126
126 129
125 130
130 133
125 134
134 137
124 138
138 139
139 142
138 143
143 146
138 147
147 150
124 151
151 152
152 155
151 156
156 159
151 160
160 163
123 164
164 165
165 166
166 169
165 170
170 173
165 174
174 177
164 178
178 179
179 182
178 183
183 184
183 185
183 186
178 187
187 188
187 189
187 190
164 191
191 192
192 193
192 194
192 195
191 196
196 197
196 198
196 199
191 200
200 201
200 202
200 203
123 204
204 205
205 206
206 209
205 210
210 211
210 212
210 213
205 214
214 215
214 216
214 217
204 218
218 219
219 222
218 223
223 224
223 225
223 226
218 227
227 228
227 229
227 230
204 231
231 232
232 233
232 234
232 235
231 236
236 237
236 238
236 239
231 240
240 241
240 242
240 243
1 244
244 245
245 246
246 247
247 250
246 251
251 254
246 255
255 258
245 259
259 260
260 263
259 264
264 265
264 266
264 267
259 268
268 269
268 270
268 271
245 272
272 273
273 274
273 275
273 276
272 277
277 278
277 279
277 280
272 281
281 282
281 283
281 284
244 285
285 286
286 287
287 290
286 291
291 294
286 295
295 298
285 299
299 300
300 303
299 304
304 305
304 306
304 307
299 308
308 309
308 310
308 311
285 312
312 313
313 314
313 315
313 316
312 317
317 318
317 319
317 320
312 321
321 322
321 323
321 324
244 325
325 326
326 327
327 330
326 331
331 332
331 333
331 334
326 335
335 336
335 337
335 338
325 339
339 340
340 343
339 344
344 345
344 346
344 347
339 348
348 349
348 350
348 351
325 352
352 353
353 354
353 355
353 356
352 357
357 358
357 359
357 360
352 361
361 362
361 363
361 364
