ply
format ascii 1.0
element vertex 162
property float x
property float y
property float z
element edge 131
property int vertex1
property int vertex2
end_header

0 0 0
0 0 80
15.3073 0 116.955
29.4495 0 131.097
38.6883 0 134.924
48.6883 0 134.924
47.9271 0 138.751
54.9981 0 145.822
57.9271 0 138.751
43.5916 0 145.239
47.4184 0 154.478
54.4895 0 161.549
51.2453 0 163.717
51.2453 0 173.717
58.3163 0 170.788
52.8304 0 149.066
62.8304 0 149.066
62.0692 0 152.893
69.1403 0 159.964
72.0692 0 152.893
30.6147 0 153.91
30.6147 0 173.91
34.4415 0 183.149
41.5126 0 190.22
38.2683 0 192.388
38.2683 0 202.388
45.3394 0 199.459
30.6147 0 193.91
26.7878 0 203.149
26.7878 0 213.149
22.961 0 212.388
15.8899 0 219.459
22.961 0 222.388
34.4415 0 203.149
41.5126 0 210.22
38.2683 0 212.388
38.2683 0 222.388
45.3394 0 219.459
44.7568 0 168.052
53.9956 0 171.879
63.9956 0 171.879
63.2344 0 175.706
70.3055 0 182.777
73.2344 0 175.706
58.8989 0 182.195
62.7258 0 191.433
69.7968 0 198.504
66.5526 0 200.672
66.5526 0 210.672
73.6237 0 207.743
68.1377 0 186.021
78.1377 0 186.021
77.3765 0 189.848
84.4476 0 196.919
87.3765 0 189.848
0 0 160
-15.3073 0 196.955
-15.3073 0 216.955
-11.4805 0 226.194
-4.40944 0 233.265
-7.65367 0 235.433
-7.65367 0 245.433
-0.582601 0 242.504
-15.3073 0 236.955
-19.1342 0 246.194
-19.1342 0 256.194
-22.961 0 255.433
-30.0321 0 262.504
-22.961 0 265.433
-11.4805 0 246.194
-4.40944 0 253.265
-7.65367 0 255.433
-7.65367 0 265.433
-0.582601 0 262.504
-30.6147 0 233.91
-44.7568 0 248.052
-48.5836 0 257.291
-48.5836 0 267.291
-52.4105 0 266.53
-59.4815 0 273.601
-52.4105 0 276.53
-58.8989 0 262.195
-68.1377 0 266.021
-75.2088 0 273.093
-77.3765 0 269.848
-87.3765 0 269.848
-84.4476 0 276.919
-62.7258 0 271.433
-62.7258 0 281.433
-66.5526 0 280.672
-73.6237 0 287.743
-66.5526 0 290.672
-30.6147 0 253.91
-26.7878 0 263.149
-19.7168 0 270.22
-22.961 0 272.388
-22.961 0 282.388
-15.8899 0 279.459
-30.6147 0 273.91
-34.4415 0 283.149
-34.4415 0 293.149
-38.2683 0 292.388
-45.3394 0 299.459
-38.2683 0 302.388
-26.7878 0 283.149
-19.7168 0 290.22
-22.961 0 292.388
-22.961 0 302.388
-15.8899 0 299.459
15.3073 0 196.955
29.4495 0 211.097
38.6883 0 214.924
48.6883 0 214.924
47.9271 0 218.751
54.9981 0 225.822
57.9271 0 218.751
43.5916 0 225.239
47.4184 0 234.478
54.4895 0 241.549
51.2453 0 243.717
51.2453 0 253.717
58.3163 0 250.788
52.8304 0 229.066
62.8304 0 229.066
62.0692 0 232.893
69.1403 0 239.964
72.0692 0 232.893
30.6147 0 233.91
30.6147 0 253.91
34.4415 0 263.149
41.5126 0 270.22
38.2683 0 272.388
38.2683 0 282.388
45.3394 0 279.459
30.6147 0 273.91
26.7878 0 283.149
26.7878 0 293.149
22.961 0 292.388
15.8899 0 299.459
22.961 0 302.388
34.4415 0 283.149
41.5126 0 290.22
38.2683 0 292.388
38.2683 0 302.388
45.3394 0 299.459
44.7568 0 248.052
53.9956 0 251.879
63.9956 0 251.879
63.2344 0 255.706
70.3055 0 262.777
73.2344 0 255.706
58.8989 0 262.195
62.7258 0 271.433
69.7968 0 278.504
66.5526 0 280.672
66.5526 0 290.672
73.6237 0 287.743
68.1377 0 266.021
78.1377 0 266.021
77.3765 0 269.848
84.4476 0 276.919
87.3765 0 269.848
0 1
1 2
2 3
3 4
4 6
6 8
3 9
9 10
10 12
12 14
9 15
15 17
17 19
2 20
20 21
21 22
22 24
24 26
21 27
27 28
28 30
30 32
27 33
33 35
35 37
20 38
38 39
39 41
41 43
38 44
44 45
45 47
47 49
44 50
50 52
52 54
1 55
55 56
56 57
57 58
58 60
60 62
57 63
63 64
64 66
66 68
63 69
69 71
71 73
56 74
74 75
75 76
76 78
78 80
75 81
81 82
82 83
82 84
84 85
84 86
81 87
87 88
87 89
89 90
89 91
74 92
92 93
93 94
93 95
95 96
95 97
92 98
98 99
99 100
99 101
101 102
101 103
98 104
104 105
104 106
106 107
106 108
55 109
109 110
110 111
111 113
113 115
110 116
116 117
117 118
117 119
119 120
119 121
116 122
122 123
122 124
124 125
124 126
109 127
127 128
128 129
129 131
131 133
128 134
134 135
135 136
135 137
137 138
137 139
134 140
140 141
140 142
142 143
142 144
127 145
145 146
146 147
146 148
148 149
148 150
145 151
151 152
152 153
152 154
154 155
154 156
151 157
157 158
157 159
159 160
159 161
