ply
format ascii 1.0
element vertex 232
property float x
property float y
property float z
element edge 231
property int vertex1
property int vertex2
end_header

0 0 0
0.052165 0.0802657 0.572046
-0.0636778 -0.188073 1.07302
-0.0833034 0.124972 1.4095
-0.0382638 0.400837 1.74931
-0.219439 0.19037 2.30363
-0.116891 0.449498 2.81229
-0.338529 0.33701 3.18743
-0.485732 0.547073 3.69645
-0.712854 0.748927 3.92464
-0.779414 0.947727 4.22951
-0.951441 1.26507 4.4811
-0.840553 1.26874 4.67108
-0.766944 0.89804 4.42681
-0.926968 1.13413 4.22395
-1.09794 0.926067 4.20452
-1.16241 0.65977 4.14681
-1.22638 0.513117 4.14635
-1.50272 0.377268 4.35149
-1.63586 0.114187 4.66448
-1.79613 0.0585724 4.91191
-1.88114 0.0185104 5.14357
-1.97787 -0.0626456 5.33581
-2.10677 -0.172746 5.57111
-2.08593 -0.486815 5.67023
-2.06792 -0.672151 6.03551
-2.05812 -0.658306 6.22475
-2.08654 -0.699449 6.40805
-2.18926 -0.709257 6.75295
-2.17444 -0.901676 7.13721
-2.06993 -0.987237 7.4383
-1.86231 -0.979522 7.57735
-1.67994 -1.11315 7.77454
-1.74633 -1.11416 7.18164
-1.72214 -1.09711 7.17674
-2.04283 -0.69273 6.40408
-2.03975 -0.512119 6.05666
-2.15353 -0.729177 6.00652
-2.21895 -0.410074 5.87292
-2.30114 -0.661325 6.19929
-1.88993 -0.304127 5.50917
-1.84143 -0.495906 5.7607
-1.9418 -0.25078 5.55354
-2.04625 -0.48218 5.86264
-1.78948 -0.394891 5.84616
-1.96056 -0.0400684 5.38411
-1.83156 -0.132313 5.50597
-1.72523 -0.251857 5.50393
-1.37815 -0.426239 5.46889
-0.995487 -0.688659 5.25723
-0.922149 -0.702144 5.22825
-0.582072 -0.823232 5.34693
-0.325395 -0.978333 5.35471
-0.17472 -1.16453 5.28309
0.0753469 -1.31268 5.17531
-0.373902 -0.828764 5.37404
-0.68003 -0.85604 5.06517
-0.378008 -0.921193 5.03992
-0.110761 -1.04705 4.91688
-0.38095 -0.955564 5.00998
-0.684799 -0.635335 5.4311
-0.30927 -0.520459 5.58003
-0.206342 -0.630378 5.27519
-0.126752 -0.610208 5.1618
-0.576032 -0.734239 5.14686
-0.553137 -0.667897 5.18526
-1.31536 -0.411435 5.49215
-1.68326 0.0702923 5.16542
-1.42825 0.00194406 4.98846
-1.34854 0.00761482 4.99223
-0.804419 0.309715 5.44563
-0.701645 0.208892 5.21722
-0.388159 0.482055 5.02047
-0.268167 0.577187 4.94663
-0.0370634 0.840969 4.86533
0.159167 1.30434 5.11106
-0.0866592 0.865108 4.66271
-0.399354 0.485818 4.77075
-0.641264 0.455433 5.33542
-0.309539 0.536595 5.6145
-0.160817 0.592553 5.84505
0.0714063 0.91763 5.97465
0.115176 1.11074 5.87877
0.0427099 0.748101 6.16517
0.186731 0.689882 6.12686
-0.727227 0.883613 5.22408
-0.500002 -0.323228 4.80402
-0.650722 -0.313503 4.73527
-0.674895 -0.382825 4.66737
-0.764047 -0.446513 4.45383
-0.908078 -0.573455 4.05793
-0.991339 -0.596997 3.99001
-1.28342 -0.923904 3.95229
-1.17121 -1.11231 3.97002
-0.867957 -0.715118 4.63454
-0.998223 -0.980269 4.88915
-1.10731 -1.26405 5.08193
-1.04325 -0.71188 5.0758
-1.03856 -1.03573 4.87508
-0.71043 -0.332978 4.70906
-0.630187 -0.628153 4.39403
-0.802269 -0.540081 4.29934
-0.33418 -0.351059 4.47741
-0.245617 -0.273832 4.94955
-1.54079 0.142891 4.62208
-1.6436 0.193183 4.92091
-1.12605 0.695187 4.93919
-1.40674 0.293485 4.33299
-1.8204 0.189663 4.63049
-1.92651 -0.00080766 4.8217
-1.98895 -0.135946 4.8033
-2.09954 -0.251843 4.86021
-2.03696 -0.585233 4.98076
-2.16826 -0.898493 5.17241
-2.10632 -1.09949 5.32526
-2.009 -1.28262 5.29223
-2.09918 -1.59582 5.44511
-2.14945 -1.6828 5.3476
-2.15851 -1.11825 5.01584
-2.10655 -0.340011 4.87686
-2.16412 -0.494077 5.26332
-1.95081 -0.268547 5.06113
-2.11477 -0.507471 5.2912
-2.15294 -0.536177 5.19197
-1.37006 0.173337 4.17475
-1.41604 0.0368273 4.036
-1.39036 0.18744 4.29418
-1.2567 0.0842639 4.31395
-1.17981 -0.437599 4.03256
-0.900422 0.434425 4.1913
-0.748024 0.0355826 4.14031
-0.706938 -0.180054 4.23733
-0.555284 -0.0613938 4.73111
-0.576731 -0.0632216 5.72088
-0.643 -0.0200748 5.73299
-0.520559 -0.4636 4.21578
-0.780322 0.436338 4.43755
-0.804254 0.0336837 4.37201
-0.784185 0.728017 4.48317
-0.726952 0.780042 5.15876
-0.753911 0.785669 6.09836
-0.75159 0.783963 6.15829
-0.622925 0.938353 5.17347
-1.01872 0.605038 5.12033
-0.374727 0.70564 4.31889
-0.220037 0.211433 4.10574
-0.123854 0.150783 3.94121
-0.0047531 0.00335104 3.63514
0.092307 -0.413536 3.37671
0.109639 -0.562731 3.15235
0.20524 -0.784929 2.95847
0.310917 -0.908623 2.73058
0.362439 -1.23843 2.5289
0.612275 -1.46335 2.35172
1.53732 -2.27638 1.77478
0.408038 -1.27165 2.33702
0.345594 -1.08584 2.71794
0.506871 -1.15892 2.55593
0.625412 -1.1719 2.43477
0.135103 -0.434624 3.3004
0.116339 -0.563778 3.01921
0.176596 -0.474707 3.12761
0.0646744 0.220032 3.83935
0.122281 0.17879 3.64166
0.19399 0.270602 3.40922
0.226129 0.416639 2.81783
0.125899 0.063445 3.30066
-0.855319 1.00979 4.6687
-0.97817 0.539796 5.11549
-0.730911 1.0945 3.97713
-1.06914 1.12129 3.95522
-1.31365 1.4865 3.93431
-0.555066 0.398724 3.50586
-0.490099 0.249754 3.90397
-0.240753 0.20758 4.2393
-0.293338 0.54895 4.47826
-0.329354 0.526543 4.87601
-0.350966 0.464546 5.17897
-0.556275 0.534961 5.67343
-0.411989 0.141308 6.31928
-0.395831 0.02541 6.62784
-0.36757 -0.17366 6.98515
-0.322542 -0.164782 7.25122
-0.413923 -0.211009 7.51182
-0.327129 -0.470704 8.35865
-0.218081 -0.136491 7.34003
-0.0949068 -0.329627 6.51039
-0.271192 0.144792 6.69367
0.0421975 0.321434 6.70726
-0.0258397 0.364649 7.11945
-0.0190755 0.464069 7.20294
0.361099 0.116293 6.73214
0.402821 0.529706 6.90264
0.489321 0.482619 6.9712
0.355973 0.432843 6.96325
-0.30936 0.173048 6.75805
-0.49463 -0.0248904 6.45511
-0.561879 0.29809 6.6631
-0.741482 0.0151712 6.89932
-0.911763 -0.215149 7.042
-0.996295 -0.284642 7.05319
-0.762083 0.825746 5.77337
-1.05126 0.850539 6.03388
-0.785895 0.896512 6.2016
-0.222598 0.543288 5.98996
-0.252382 0.567243 6.41826
-0.265166 0.250638 5.64552
-0.284059 0.225713 5.80244
-0.420853 0.107123 5.98905
-0.578169 0.706528 4.53248
-0.603269 1.01531 4.52133
-0.600994 1.30957 4.71081
-0.842868 1.55334 4.81886
-0.841403 1.4256 5.33324
-0.746558 1.42325 5.46208
-0.943781 1.10365 5.48412
-0.607987 1.15334 5.35201
-0.729162 0.822527 4.62106
-0.908708 1.06282 4.61628
0.0667172 0.589127 4.5534
0.126102 0.821882 4.93393
-0.280072 1.08207 5.41322
-0.210383 1.24387 5.45018
-0.383814 1.33343 5.49376
0.317418 0.89627 5.07663
0.467133 1.00773 5.11216
0.275424 0.725373 4.53395
0.325289 0.888955 4.65583
-0.787583 0.32549 4.07593
-0.180836 -0.224522 1.62102
-0.830693 -0.061514 1.6248
-0.830693 -0.061514 1.6248

0 1
1 2
2 3
3 4
4 5
5 6
6 7
7 8
8 9
9 10
10 11
11 12
12 13
13 14
14 15
15 16
16 17
17 18
18 19
19 20
20 21
21 22
22 23
23 24
24 25
25 26
26 27
27 28
28 29
29 30
30 31
31 32
29 33
33 34
25 35
24 36
24 37
23 38
38 39
22 40
40 41
22 42
42 43
42 44
21 45
45 46
46 47
47 48
48 49
49 50
50 51
51 52
52 53
53 54
51 55
50 56
56 57
57 58
56 59
49 60
60 61
61 62
62 63
60 64
64 65
47 66
45 67
20 68
68 69
69 70
70 71
71 72
72 73
73 74
74 75
74 76
72 77
71 78
70 79
79 80
80 81
81 82
80 83
83 84
70 85
69 86
69 87
87 88
88 89
89 90
90 91
91 92
92 93
89 94
94 95
95 96
95 97
95 98
94 99
88 100
88 101
87 102
87 103
18 104
104 105
104 106
17 107
107 108
108 109
109 110
110 111
111 112
112 113
113 114
114 115
115 116
116 117
113 118
111 119
119 120
109 121
121 122
121 123
17 124
124 125
125 126
126 127
125 128
15 129
129 130
130 131
131 132
132 133
133 134
131 135
130 136
129 137
129 138
138 139
139 140
140 141
139 142
138 143
13 144
144 145
145 146
146 147
147 148
148 149
149 150
150 151
151 152
152 153
153 154
152 155
150 156
156 157
157 158
148 159
159 160
148 161
145 162
162 163
163 164
164 165
163 166
10 167
167 168
9 169
169 170
170 171
7 172
172 173
173 174
174 175
175 176
176 177
177 178
178 179
179 180
180 181
181 182
182 183
183 184
182 185
180 186
179 187
187 188
188 189
189 190
188 191
188 192
192 193
188 194
187 195
179 196
196 197
197 198
198 199
199 200
178 201
201 202
178 203
178 204
204 205
176 206
206 207
207 208
175 209
209 210
210 211
211 212
212 213
213 214
213 215
211 216
209 217
217 218
175 219
219 220
220 221
221 222
222 223
220 224
224 225
219 226
226 227
172 228
3 229
229 230
229 231
